<?xml version="1.0" encoding="UTF-8" standalone="no"?>
<!-- Created with Inkscape (http://www.inkscape.org/) -->

<svg
   width="64.114052mm"
   height="10.383986mm"
   viewBox="0 0 64.114052 10.383986"
   version="1.1"
   id="svg1"
   inkscape:version="1.3 (0e150ed6c4, 2023-07-21)"
   sodipodi:docname="william-logo-dark.svg"
   inkscape:export-filename="william-logo.svg"
   inkscape:export-xdpi="96"
   inkscape:export-ydpi="96"
   xmlns:inkscape="http://www.inkscape.org/namespaces/inkscape"
   xmlns:sodipodi="http://sodipodi.sourceforge.net/DTD/sodipodi-0.dtd"
   xmlns="http://www.w3.org/2000/svg"
   xmlns:svg="http://www.w3.org/2000/svg">
  <sodipodi:namedview
     id="namedview1"
     pagecolor="#ffffff"
     bordercolor="#000000"
     borderopacity="0.25"
     inkscape:showpageshadow="2"
     inkscape:pageopacity="0.0"
     inkscape:pagecheckerboard="0"
     inkscape:deskcolor="#d1d1d1"
     inkscape:document-units="mm"
     inkscape:zoom="2.3429433"
     inkscape:cx="72.98512"
     inkscape:cy="-66.796323"
     inkscape:window-width="2560"
     inkscape:window-height="1571"
     inkscape:window-x="-9"
     inkscape:window-y="-9"
     inkscape:window-maximized="1"
     inkscape:current-layer="layer1" />
  <defs
     id="defs1" />
  <g
     inkscape:label="Layer 1"
     inkscape:groupmode="layer"
     id="layer1"
     transform="translate(-53.735219,-82.321934)">
    <path
       d="m 74.883975,82.862006 q 0.455082,0 0.849486,-0.01517 0.409574,-0.03034 0.834317,-0.04551 0.01517,0.06068 -0.03034,0.24271 -0.04551,0.166864 -0.09102,0.182033 -0.04551,0 -0.25788,0.04551 -0.212371,0.03034 -0.424743,0.136525 -0.197202,0.09102 -0.24271,0.303388 -0.03034,0.182033 0.01517,0.819147 0.04551,0.621946 0.106186,1.607957 0.07585,0.970842 0.166863,2.093377 0.09102,1.122536 0.182033,2.229902 l 3.39795,-7.175125 q 0.106186,-0.212372 0.288218,-0.348897 0.197203,-0.136524 0.303388,-0.136524 0.06068,0 0.121356,0.227541 0.01517,0.09102 0.06068,0.606776 0.06068,0.50059 0.151694,1.304568 0.09102,0.788809 0.197202,1.729312 0.121356,0.940503 0.227541,1.926514 0.121356,0.986011 0.227541,1.865836 l 2.54846,-5.627847 q 0.121355,-0.25788 0.212371,-0.546099 0.106186,-0.288219 0.136525,-0.485421 0.04551,-0.24271 -0.136525,-0.364065 -0.166863,-0.121356 -0.394404,-0.166864 -0.212372,-0.04551 -0.303388,-0.04551 -0.04551,-0.03034 -0.01517,-0.197202 0.04551,-0.166864 0.106186,-0.227541 0.379235,0.01517 0.728131,0.04551 0.364066,0.01517 0.743301,0.01517 0.318557,0 0.51576,0 0.197202,-0.01517 0.379235,-0.03034 0.197202,-0.01517 0.470251,-0.03034 0.03034,0.06068 -0.03034,0.24271 -0.04551,0.182033 -0.07585,0.182033 -0.07585,0 -0.394404,0.09102 -0.318557,0.09102 -0.561268,0.288219 -0.166863,0.136525 -0.333727,0.409574 -0.166863,0.25788 -0.379235,0.712962 l -3.458623,7.402667 q -0.09102,0.197202 -0.288219,0.348896 -0.197202,0.151694 -0.333726,0.151694 -0.04551,0 -0.07585,-0.09102 -0.01517,-0.106186 -0.01517,-0.151694 -0.121355,-1.046689 -0.227541,-1.926514 -0.106186,-0.879825 -0.212371,-1.714142 -0.106186,-0.834317 -0.227541,-1.729312 -0.106186,-0.910164 -0.242711,-1.987191 l -3.367607,7.099279 q -0.09102,0.197202 -0.288218,0.348896 -0.182033,0.151694 -0.318558,0.151694 -0.04551,0 -0.07585,-0.09102 -0.03034,-0.106186 -0.03034,-0.151694 l -0.712962,-7.675717 q -0.03034,-0.439912 -0.06068,-0.712962 -0.01517,-0.288218 -0.182033,-0.48542 -0.106185,-0.151694 -0.379235,-0.212372 -0.257879,-0.07585 -0.379235,-0.07585 -0.01517,0 0.03034,-0.197202 0.04551,-0.212372 0.06068,-0.227541 0.470251,0.01517 0.7433,0.04551 0.27305,0.01517 0.743301,0.01517 z M 86.676583,87.8224 q 0.01517,-0.07585 0.03034,-0.24271 0.03034,-0.182033 0.03034,-0.24271 0,-0.01517 0,-0.03034 0,-0.106186 -0.01517,-0.212372 -0.01517,-0.121355 -0.121355,-0.121355 -0.151694,0 -0.394404,0.212372 -0.242711,0.197202 -0.439913,0.409573 -0.182033,0.212372 -0.212372,0.242711 -0.03034,0 -0.09102,-0.106186 -0.06068,-0.121355 -0.06068,-0.182033 0.06068,-0.106186 0.25788,-0.333727 0.197202,-0.227541 0.470252,-0.470251 0.273049,-0.24271 0.576437,-0.409574 0.303388,-0.182033 0.561268,-0.182033 0.24271,0 0.409573,0.227541 0.182033,0.212372 0.182033,0.546099 0,0.09102 -0.03034,0.318557 -0.03034,0.227541 -0.07585,0.470252 l -0.758471,3.306929 q -0.01517,0.106186 -0.04551,0.273049 -0.01517,0.151694 -0.01517,0.212372 0,0.106185 0.01517,0.24271 0.03034,0.121355 0.136525,0.121355 0.166863,0 0.394404,-0.197202 0.242711,-0.212372 0.424744,-0.424743 0.197202,-0.212372 0.212371,-0.227541 0.03034,0 0.09102,0.106186 0.06068,0.09102 0.06068,0.166863 -0.06068,0.106186 -0.273049,0.333727 -0.212372,0.227541 -0.50059,0.470251 -0.288219,0.242711 -0.606776,0.424743 -0.303388,0.166864 -0.561268,0.166864 -0.242711,0 -0.379235,-0.212372 -0.121355,-0.227541 -0.121355,-0.561268 0,-0.09102 0.03034,-0.318557 0.03034,-0.227541 0.07585,-0.470251 z m 0.849486,-4.79353 q 0.242711,0 0.379236,0.182033 0.151694,0.166863 0.151694,0.409573 0,0.333727 -0.227541,0.621946 -0.227542,0.273049 -0.576438,0.273049 -0.24271,0 -0.379235,-0.197202 -0.121355,-0.197202 -0.121355,-0.439913 0,-0.333727 0.212372,-0.591606 0.227541,-0.25788 0.561267,-0.25788 z m 3.616302,1.289399 q 0.04551,-0.212372 0.09102,-0.439913 0.04551,-0.227541 0.04551,-0.348896 0,-0.136525 -0.166864,-0.197202 -0.166863,-0.06068 -0.379235,-0.06068 -0.197202,-0.01517 -0.333726,-0.01517 -0.01517,0 -0.03034,0 -0.03034,-0.04551 -0.01517,-0.151694 0.03034,-0.121355 0.07585,-0.166864 0.621946,-0.06068 1.168044,-0.227541 0.546099,-0.166863 0.788809,-0.257879 0.06068,0.03034 0.07585,0.121355 0.01517,0.09102 0.01517,0.166863 0,0.09102 -0.07585,0.470252 -0.06068,0.364065 -0.121355,0.637114 l -1.410754,7.175127 q -0.01517,0.04551 -0.04551,0.24271 -0.01517,0.182033 -0.01517,0.242711 0,0.106185 0.01517,0.24271 0.03034,0.121355 0.136524,0.121355 0.166864,0 0.394405,-0.197202 0.24271,-0.212372 0.439912,-0.424743 0.197203,-0.212372 0.212372,-0.227541 0.03034,0 0.07585,0.106186 0.06068,0.09102 0.06068,0.166863 -0.06068,0.106186 -0.27305,0.333727 -0.212371,0.227541 -0.50059,0.470251 -0.288218,0.242711 -0.606776,0.424743 -0.303388,0.166864 -0.561268,0.166864 -0.24271,0 -0.379235,-0.212372 -0.121355,-0.227541 -0.121355,-0.561268 0,-0.09102 0.03034,-0.318557 0.03034,-0.227541 0.07585,-0.470251 z m 3.843849,0 q 0.04551,-0.212372 0.09102,-0.439913 0.04551,-0.227541 0.04551,-0.348896 0,-0.136525 -0.166863,-0.197202 -0.166864,-0.06068 -0.379235,-0.06068 -0.197203,-0.01517 -0.333727,-0.01517 -0.01517,0 -0.03034,0 -0.03034,-0.04551 -0.01517,-0.151694 0.03034,-0.121355 0.07585,-0.166864 0.621945,-0.06068 1.168043,-0.227541 0.546099,-0.166863 0.788809,-0.257879 0.06068,0.03034 0.07585,0.121355 0.01517,0.09102 0.01517,0.166863 0,0.09102 -0.07585,0.470252 -0.06068,0.364065 -0.121356,0.637114 l -1.410754,7.175127 q -0.01517,0.04551 -0.04551,0.24271 -0.01517,0.182033 -0.01517,0.242711 0,0.106185 0.01517,0.24271 0.03034,0.121355 0.136525,0.121355 0.166863,0 0.394404,-0.197202 0.24271,-0.212372 0.439913,-0.424743 0.197202,-0.212372 0.212371,-0.227541 0.03034,0 0.07585,0.106186 0.06068,0.09102 0.06068,0.166863 -0.06068,0.106186 -0.273049,0.333727 -0.212372,0.227541 -0.500591,0.470251 -0.288218,0.242711 -0.606776,0.424743 -0.303388,0.166864 -0.561267,0.166864 -0.242711,0 -0.379235,-0.212372 -0.121356,-0.227541 -0.121356,-0.561268 0,-0.09102 0.03034,-0.318557 0.03034,-0.227541 0.07585,-0.470251 z m 3.494953,3.504131 q 0.01517,-0.07585 0.03034,-0.24271 0.03034,-0.182033 0.03034,-0.24271 0,-0.01517 0,-0.03034 0,-0.106186 -0.01517,-0.212372 -0.01517,-0.121355 -0.121356,-0.121355 -0.151694,0 -0.394404,0.212372 -0.242711,0.197202 -0.439913,0.409573 -0.182033,0.212372 -0.212371,0.242711 -0.03034,0 -0.09102,-0.106186 -0.06068,-0.121355 -0.06068,-0.182033 0.06068,-0.106186 0.257879,-0.333727 0.197203,-0.227541 0.470252,-0.470251 0.273049,-0.24271 0.576437,-0.409574 0.303388,-0.182033 0.561268,-0.182033 0.24271,0 0.409574,0.227541 0.182033,0.212372 0.182033,0.546099 0,0.09102 -0.03034,0.318557 -0.03034,0.227541 -0.07585,0.470252 l -0.75847,3.306929 q -0.01517,0.106186 -0.04551,0.273049 -0.01517,0.151694 -0.01517,0.212372 0,0.106185 0.01517,0.24271 0.03034,0.121355 0.136524,0.121355 0.166864,0 0.394405,-0.197202 0.24271,-0.212372 0.424743,-0.424743 0.197202,-0.212372 0.212371,-0.227541 0.03034,0 0.09101,0.106186 0.0607,0.09102 0.0607,0.166863 -0.0607,0.106186 -0.273054,0.333727 -0.212371,0.227541 -0.50059,0.470251 -0.288219,0.242711 -0.606776,0.424743 -0.303388,0.166864 -0.561268,0.166864 -0.24271,0 -0.379235,-0.212372 -0.121355,-0.227541 -0.121355,-0.561268 0,-0.09102 0.03034,-0.318557 0.03034,-0.227541 0.07585,-0.470251 z m 0.849487,-4.79353 q 0.24271,0 0.379235,0.182033 0.151694,0.166863 0.151694,0.409573 0,0.333727 -0.227541,0.621946 -0.227541,0.273049 -0.576437,0.273049 -0.242711,0 -0.379235,-0.197202 -0.121356,-0.197202 -0.121356,-0.439913 0,-0.333727 0.212372,-0.591606 0.227541,-0.25788 0.561268,-0.25788 z m 6.14959,3.124896 q 0.39441,0 0.66746,0.06068 0.27305,0.06068 0.48542,0.136525 l -0.91017,4.672175 q -0.0152,0.07585 -0.0455,0.288218 -0.0303,0.212372 -0.0152,0.394405 0.0303,0.166863 0.15169,0.166863 0.16686,0 0.39441,-0.197202 0.24271,-0.212372 0.43991,-0.424743 0.1972,-0.212372 0.21237,-0.227541 0.0303,0 0.0758,0.106186 0.0607,0.09102 0.0607,0.166863 -0.0607,0.106186 -0.27304,0.333727 -0.19721,0.227541 -0.48543,0.470251 -0.28821,0.242711 -0.60677,0.424743 -0.30339,0.166864 -0.56127,0.166864 -0.24271,0 -0.37923,-0.212372 -0.13653,-0.227541 -0.13653,-0.561268 0,-0.09102 0.0303,-0.318557 0.0303,-0.227541 0.0759,-0.470251 0.0303,-0.212372 0.0455,-0.288219 0.0152,-0.09102 0.0303,-0.166863 -0.10618,0.197202 -0.34889,0.530929 -0.22754,0.333726 -0.53093,0.667453 -0.30339,0.333727 -0.65229,0.576437 -0.33372,0.227541 -0.65228,0.227541 -0.60678,0 -0.95567,-0.48542 -0.3489,-0.485421 -0.3489,-1.259061 0,-0.970841 0.39441,-1.835497 0.40957,-0.864656 1.04668,-1.51694 0.63712,-0.667454 1.36525,-1.046689 0.7433,-0.379235 1.42592,-0.379235 z m -0.68262,0.591607 q -0.42474,0 -0.86465,0.318557 -0.42475,0.318558 -0.78881,0.864656 -0.36407,0.530929 -0.59161,1.168044 -0.21237,0.637115 -0.21237,1.27423 0,0.697792 0.18203,1.077027 0.1972,0.364066 0.57644,0.364066 0.27305,0 0.5916,-0.303388 0.31856,-0.303388 0.60678,-0.788809 0.30339,-0.50059 0.53093,-1.077028 0.22754,-0.576437 0.33373,-1.107366 l 0.31855,-1.562448 q -0.10618,-0.121355 -0.31855,-0.166863 -0.21237,-0.06068 -0.36407,-0.06068 z m 10.71559,4.383957 0.51576,-2.442274 q 0.0303,-0.106186 0.0607,-0.394404 0.0455,-0.288219 0.0455,-0.409574 0,-0.288219 -0.0455,-0.455082 -0.0303,-0.182033 -0.24271,-0.182033 -0.22754,0 -0.60678,0.318558 -0.37923,0.303388 -0.80398,0.819147 -0.40957,0.50059 -0.7433,1.107366 -0.31855,0.591607 -0.42474,1.152875 l -0.36407,1.956852 q -0.15169,0.01517 -0.27305,0.03034 -0.10618,0.01517 -0.27304,0.01517 -0.1517,0 -0.25788,-0.01517 -0.10619,-0.01517 -0.25788,-0.03034 l 0.81914,-4.201923 q 0.0303,-0.182033 0.0455,-0.318558 0.0152,-0.136524 0.0152,-0.24271 0,-0.591607 -0.28822,-0.591607 -0.24271,0 -0.62194,0.348896 -0.37924,0.348897 -0.78881,0.894995 -0.39441,0.546098 -0.69779,1.168044 -0.30339,0.606776 -0.42475,1.137705 l -0.37923,1.805158 q -0.22754,0.06068 -0.53093,0.06068 -0.1517,0 -0.27305,-0.03034 -0.10619,-0.01517 -0.24271,-0.03034 L 109.4455,87.8224 q 0.0152,-0.07585 0.0303,-0.24271 0.0303,-0.182033 0.0303,-0.24271 0,-0.01517 0,-0.03034 0,-0.106186 -0.0152,-0.212372 -0.0152,-0.121355 -0.12136,-0.121355 -0.15169,0 -0.3944,0.212372 -0.24271,0.197202 -0.43991,0.409573 -0.18204,0.212372 -0.21238,0.242711 -0.0303,0 -0.091,-0.106186 -0.0607,-0.121355 -0.0607,-0.182033 0.0607,-0.106186 0.25788,-0.333727 0.21237,-0.227541 0.48542,-0.470251 0.27305,-0.24271 0.57644,-0.409574 0.30339,-0.182033 0.56127,-0.182033 0.24271,0 0.40957,0.227541 0.16686,0.212372 0.16686,0.546099 0,0.09102 -0.0455,0.318557 -0.0303,0.227541 -0.0759,0.470252 -0.0759,0.394404 -0.1517,0.697792 -0.0607,0.288219 -0.15169,0.682623 0.1972,-0.348896 0.51576,-0.849486 0.33373,-0.500591 0.71296,-0.970842 0.37924,-0.485421 0.7433,-0.803978 0.37924,-0.318558 0.66746,-0.318558 0.43991,0 0.65228,0.227541 0.21237,0.212372 0.27305,0.530929 0.0759,0.318558 0.0759,0.652285 0,0.166863 -0.0303,0.439912 -0.0303,0.25788 -0.091,0.50059 -0.0455,0.242711 -0.091,0.379235 0.19721,-0.348896 0.53093,-0.803978 0.3489,-0.470251 0.7433,-0.910164 0.39441,-0.439912 0.77364,-0.728131 0.39441,-0.288219 0.68263,-0.288219 0.51576,0 0.71296,0.27305 0.1972,0.257879 0.1972,0.712961 0,0.379235 -0.0759,0.819148 -0.0607,0.439913 -0.13652,0.788809 l -0.48542,2.27541 q -0.0152,0.106186 -0.0455,0.273049 -0.0152,0.151694 -0.0152,0.212372 0,0.106185 0.0152,0.24271 0.0303,0.121355 0.13652,0.121355 0.16687,0 0.39441,-0.197202 0.24271,-0.212372 0.42474,-0.424743 0.1972,-0.212372 0.21237,-0.227541 0.0303,0 0.091,0.106186 0.0607,0.09102 0.0607,0.166863 -0.0607,0.106186 -0.27305,0.333727 -0.21237,0.227541 -0.50059,0.470251 -0.28822,0.242711 -0.60678,0.424743 -0.30339,0.166864 -0.56127,0.166864 -0.24271,0 -0.37923,-0.212372 -0.12136,-0.227541 -0.12136,-0.561268 0,-0.09102 0.0303,-0.318557 0.0303,-0.227541 0.0759,-0.470251 z"
       id="text1"
       style="font-style:italic;font-size:15.1694px;line-height:0.85;font-family:Amiri;-inkscape-font-specification:'Amiri Italic';text-align:end;letter-spacing:0.248708px;word-spacing:-0.529167px;text-anchor:end;stroke-width:0.264583;stroke-linecap:round;stroke-linejoin:round;stroke-miterlimit:1;paint-order:fill markers stroke;fill:#ffffff;fill-opacity:1"
       aria-label="William" />
    <path
       sodipodi:type="star"
       style="opacity:1;fill:none;fill-opacity:1;stroke:#ffffff;stroke-width:3;stroke-linecap:round;stroke-linejoin:round;stroke-miterlimit:1;stroke-dasharray:none;stroke-opacity:1;paint-order:fill markers stroke"
       id="path8"
       inkscape:flatsided="true"
       sodipodi:sides="3"
       sodipodi:cx="28.067657"
       sodipodi:cy="32.093487"
       sodipodi:r1="34.1838"
       sodipodi:r2="17.0919"
       sodipodi:arg1="1.9223152"
       sodipodi:arg2="2.9695127"
       inkscape:rounded="0"
       inkscape:randomized="0"
       d="M 16.297348,64.186975 6.1590362,5.8533557 61.746588,26.24013 Z"
       transform="matrix(0.13785588,0.12233059,-0.11512864,0.14647953,62.851853,81.009926)"
       inkscape:transform-center-x="0.00037888797"
       inkscape:transform-center-y="-1.6305856" />
    <path
       sodipodi:type="star"
       style="opacity:1;fill:none;fill-opacity:1;stroke:#ffffff;stroke-width:3;stroke-linecap:round;stroke-linejoin:round;stroke-miterlimit:1;stroke-dasharray:none;stroke-opacity:1;paint-order:fill markers stroke"
       id="path9"
       inkscape:flatsided="true"
       sodipodi:sides="3"
       sodipodi:cx="28.067657"
       sodipodi:cy="32.093487"
       sodipodi:r1="34.1838"
       sodipodi:r2="17.0919"
       sodipodi:arg1="1.9223152"
       sodipodi:arg2="2.9695127"
       inkscape:rounded="0"
       inkscape:randomized="0"
       d="M 16.297348,64.186975 6.1590362,5.8533557 61.746588,26.24013 Z"
       transform="matrix(0.13785588,0.12233059,-0.11512864,0.14647953,59.147684,81.009926)"
       inkscape:transform-center-x="0.00037888797"
       inkscape:transform-center-y="-1.6305856" />
    <path
       style="opacity:1;fill:none;fill-opacity:1;stroke:#ffffff;stroke-width:0.76494;stroke-linecap:round;stroke-linejoin:round;stroke-miterlimit:1;stroke-dasharray:none;stroke-opacity:1;paint-order:fill markers stroke"
       d="M 71.047305,82.704404 V 92.32345"
       id="path10" />
  </g>
</svg>
